<?xml version="1.0" encoding="UTF-8"?>
<svg version="1.1" viewBox="0 0 2048 336" width="1158" height="190" xmlns="http://www.w3.org/2000/svg">
  <g fill="#ffffff">
    <path transform="translate(1028,125)" d="m0 0h10l4 2 2 3 13 2 3 4 1 6-6 39-1 3 19-13 5-3 6 1 4 6v9l-3 5-7 6-18 12-10 7-8 31-6 17-7 14-8 10-9 6-9 2h-7l-9-4-7-8-2-6v-12l4-12 8-13 11-12 8-8 5-4-12-2-9-6-6-8-2-6-1-7v-8l3-15 8-16 11-12 9-6z"/>
    <path transform="translate(1523,80)" d="m0 0h16l10 5 4 6 1 6-3 9-8 7-9 4-10 2h-28l-2 8-2 16h25l10 2 2 6-4 5h-33v10l-3 15-6 12-9 10-11 7-15 5-16 2-18-1-16-4-12-6-10-9-7-10-4-8v-6l3-3h6l3 3 6 12 7 8 14 7 10 3h22l13-2 12-5 9-7 5-8 3-10 1-14-40 2-5-5 1-5 2-2 14-2 15-1h14v-11l2-16-40-8-28-6-24-4h-19l-12 3-10 6-5 8v10l6 9 5 5-1 5-4 3-5-1-7-6-6-10-1-3v-14l4-9 7-8 11-7 15-4h23l30 5 40 9 23 4h3l6-9 8-7 12-6z"/>
    <!-- ... rest of the paths with fill="#ffffff" ... -->
  </g>
</svg> 